<svg class="svg-2" viewBox="0 0 75.2 61.1" version="1.1" xmlns="http://www.w3.org/2000/svg"><path d="M 62.356 1.758 C 67.656 3.958 72.456 8.158 74.156 13.458 C 75.956 18.658 74.656 24.858 73.756 31.158 C 72.856 37.458 72.356 43.758 69.656 49.858 C 66.956 56.058 62.056 61.958 56.856 60.958 C 51.556 60.058 45.856 52.258 39.856 48.858 C 33.856 45.558 27.556 46.658 20.156 44.958 C 12.756 43.258 4.256 38.758 1.256 32.058 C -1.744 25.358 0.756 16.658 7.056 12.458 C 13.356 8.258 23.456 8.558 30.456 7.158 C 37.456 5.858 41.356 2.658 46.256 1.158 C 51.156 -0.442 56.956 -0.342 62.356 1.758 Z" style="transition: all 0.3s ease 0s;"/></svg>
