<svg class="svg-1" viewBox="0 0 52.4 68" version="1.1" xmlns="http://www.w3.org/2000/svg"><path d="M 39.738 10.945 C 44.038 13.345 45.338 21.245 47.338 27.745 C 49.338 34.145 52.038 39.245 52.438 44.445 C 52.838 49.745 51.038 55.345 48.038 59.945 C 44.938 64.545 40.638 68.145 35.838 66.645 C 31.038 65.045 25.738 58.345 20.238 58.545 C 14.838 58.845 9.138 66.245 5.938 66.845 C 2.738 67.545 2.038 61.445 1.138 56.545 C 0.238 51.645 -0.862 47.945 2.238 46.045 C 5.338 44.145 12.638 44.045 14.838 41.345 C 17.038 38.745 14.138 33.445 14.238 28.545 C 14.238 23.645 17.338 18.945 22.638 15.145 C 27.938 11.345 35.338 8.445 39.738 10.945 Z" width="100%" height="100%" style="transition: all 0.3s ease 0s;"/></svg>
