<svg viewBox="0 0 100 100" xmlns="http://www.w3.org/2000/svg" version="1.1"><path d="M17.1,-25.3C22.4,-23.1,27.2,-18.9,28.9,-13.6C30.7,-8.4,29.4,-2.2,28.5,4.1C27.6,10.4,27.1,16.7,24.4,22.8C21.7,29,16.8,34.9,11.6,33.9C6.3,33,0.6,25.2,-5.4,21.8C-11.4,18.5,-17.7,19.6,-25.1,17.9C-32.5,16.2,-41,11.7,-44,5C-47,-1.7,-44.5,-10.4,-38.2,-14.6C-31.9,-18.8,-21.8,-18.5,-14.8,-19.9C-7.8,-21.2,-3.9,-24.4,1,-25.9C5.9,-27.5,11.7,-27.4,17.1,-25.3Z" width="100%" height="100%" transform="translate(50 50)" style="transition: all 0.3s ease 0s;" stroke-width="0"></path></svg>
