<!--?xml version="1.0" standalone="no"?-->
              <svg id="sw-js-blob-svg" viewBox="0 0 100 100" xmlns="http://www.w3.org/2000/svg" version="1.1">
                    <defs> 
                        <linearGradient id="sw-gradient" x1="0" x2="1" y1="1" y2="0">
                            <stop id="stop1" stop-color="rgba(248, 117, 55, 1)" offset="0%"></stop>
                            <stop id="stop2" stop-color="rgba(251, 168, 31, 1)" offset="100%"></stop>
                        </linearGradient>
                    </defs>
                <path fill="url(#sw-gradient)" d="M12.3,-12.8C18.3,-9.7,27,-8,31.9,-2.4C36.7,3.2,37.7,12.8,32.9,16.9C28,21,17.4,19.7,9.3,20.4C1.2,21.2,-4.3,24,-12.4,25C-20.6,26,-31.4,25.2,-35.4,19.7C-39.4,14.3,-36.5,4.2,-34.1,-5.4C-31.7,-15,-29.7,-24,-24.1,-27.1C-18.4,-30.3,-9.2,-27.7,-3,-24.1C3.2,-20.5,6.4,-15.9,12.3,-12.8Z" width="100%" height="100%" transform="translate(50 50)" style="transition: all 0.3s ease 0s;" stroke-width="0"></path>
              </svg>