<svg viewBox="0 0 100 100" xmlns="http://www.w3.org/2000/svg" version="1.1"><path d="M20.5,-28C24.4,-25.4,24,-16.5,26.6,-8.6C29.2,-0.7,34.8,6.2,32.6,9.8C30.3,13.4,20.2,13.6,13.4,19.2C6.7,24.8,3.3,35.8,-2.9,39.7C-9.1,43.7,-18.2,40.7,-24.1,34.8C-30,28.9,-32.7,20.2,-35.5,11.6C-38.3,2.9,-41.2,-5.7,-38.3,-11.8C-35.4,-17.9,-26.8,-21.4,-19.4,-22.9C-12.1,-24.4,-6,-24,1.1,-25.5C8.3,-27.1,16.6,-30.7,20.5,-28Z" width="100%" height="100%" transform="translate(50 50)" style="transition: all 0.3s ease 0s;" stroke-width="0"></path></svg>
