<svg class="svg-2" viewBox="0 0 100 100" xmlns="http://www.w3.org/2000/svg" version="1.1"><path d="M16.2,-26.3C22.4,-24.4,29.7,-22.9,31.8,-18.6C33.8,-14.3,30.5,-7.1,29.3,-0.7C28,5.7,28.8,11.4,28.3,18.3C27.7,25.2,25.8,33.3,20.8,33.6C15.9,34,8,26.7,1.5,24C-4.9,21.3,-9.8,23.4,-13.2,22.1C-16.7,20.9,-18.7,16.4,-19.6,12.2C-20.5,8,-20.3,4,-23.7,-2C-27.1,-8,-34.2,-15.9,-34.6,-22.3C-34.9,-28.6,-28.5,-33.4,-21.6,-34.9C-14.7,-36.3,-7.4,-34.4,-1.2,-32.4C5,-30.3,10,-28.1,16.2,-26.3Z" transform="translate(50 50)" style="transition: all 0.3s ease 0s;" stroke-width="1"></path></svg>
