<svg viewBox="0 0 100 100" xmlns="http://www.w3.org/2000/svg" version="1.1"><path d="M19.3,-33.3C23.6,-30.9,24.9,-23,26.9,-16.5C28.9,-10.1,31.6,-5,32,0.2C32.4,5.5,30.6,11.1,27.6,15.7C24.5,20.3,20.2,23.9,15.4,22.4C10.6,20.8,5.3,14.1,-0.2,14.3C-5.6,14.6,-11.3,22,-14.5,22.6C-17.7,23.3,-18.4,17.2,-19.3,12.3C-20.2,7.4,-21.3,3.7,-18.2,1.8C-15.1,-0.1,-7.8,-0.2,-5.6,-2.9C-3.4,-5.5,-6.3,-10.8,-6.2,-15.7C-6.2,-20.6,-3.1,-25.3,2.2,-29.1C7.5,-32.9,14.9,-35.8,19.3,-33.3Z" width="100%" height="100%" transform="translate(50 50)" style="transition: all 0.3s ease 0s;" stroke-width="1" ></path></svg>
