<!--?xml version="1.0" standalone="no"?--><svg id="sw-js-blob-svg" viewBox="0 0 100 100" xmlns="http://www.w3.org/2000/svg" version="1.1"><path fill="red" d="M12.1,-17.3C18.6,-17.3,28.5,-19.8,34.9,-17.3C41.3,-14.8,44.2,-7.4,42.1,-1.2C40,5,33,10,27.9,14.8C22.8,19.5,19.7,24.1,15.4,26C11,27.9,5.5,27.2,0.9,25.5C-3.6,23.9,-7.3,21.4,-11.9,19.7C-16.5,17.9,-22.1,17,-27.5,13.8C-32.9,10.7,-38.1,5.3,-36.2,1.1C-34.3,-3.2,-25.4,-6.3,-21.3,-11.7C-17.1,-17,-17.8,-24.5,-15.1,-26.6C-12.3,-28.6,-6.2,-25.3,-1.6,-22.4C2.9,-19.5,5.7,-17.2,12.1,-17.3Z" width="100%" height="100%" transform="translate(50 50)" style="transition: all 0.3s ease 0s;" stroke-width="1"></path></svg>
